<?xml version="1.0" encoding="UTF-8"?>
<svg width="1024" height="1024" viewBox="0 0 1024 1024" fill="none" xmlns="http://www.w3.org/2000/svg">
  <defs>
    <filter id="shadow" x="-20%" y="-20%" width="140%" height="140%">
      <feDropShadow dx="0" dy="8" stdDeviation="12" flood-opacity="0.15"/>
    </filter>
    <linearGradient id="bgGradient" x1="0%" y1="0%" x2="100%" y2="100%">
      <stop offset="0%" style="stop-color:#f8fafc;stop-opacity:1" />
      <stop offset="100%" style="stop-color:#e2e8f0;stop-opacity:1" />
    </linearGradient>
  </defs>
  
  <!-- Background with subtle gradient -->
  <rect width="1024" height="1024" rx="180" ry="180" fill="url(#bgGradient)" stroke="#cbd5e1" stroke-width="8" filter="url(#shadow)"/>
  
  <!-- TreeMap grid with proper spacing -->
  <g transform="translate(160, 160)">
    <!-- Row 1 -->
    <rect x="0" y="0" width="224" height="224" rx="12" fill="rgba(15, 23, 42, 0.85)" opacity="0.9"/>
    <rect x="244" y="0" width="224" height="224" rx="12" fill="rgba(15, 23, 42, 0.65)" opacity="0.9"/>
    <rect x="488" y="0" width="216" height="224" rx="12" fill="rgba(15, 23, 42, 0.45)" opacity="0.9"/>
    
    <!-- Row 2 -->
    <rect x="0" y="244" width="224" height="224" rx="12" fill="rgba(15, 23, 42, 0.55)" opacity="0.9"/>
    <rect x="244" y="244" width="224" height="224" rx="12" fill="rgba(15, 23, 42, 0.75)" opacity="0.9"/>
    <rect x="488" y="244" width="216" height="224" rx="12" fill="rgba(15, 23, 42, 0.35)" opacity="0.9"/>
    
    <!-- Row 3 -->
    <rect x="0" y="488" width="224" height="216" rx="12" fill="rgba(15, 23, 42, 0.50)" opacity="0.9"/>
    <rect x="244" y="488" width="224" height="216" rx="12" fill="rgba(15, 23, 42, 0.70)" opacity="0.9"/>
    <rect x="488" y="488" width="216" height="216" rx="12" fill="rgba(15, 23, 42, 0.40)" opacity="0.9"/>
  </g>
</svg>