<?xml version="1.0" encoding="UTF-8"?>
<svg width="512" height="512" viewBox="0 0 512 512" xmlns="http://www.w3.org/2000/svg">
  <!-- White background circle -->
  <circle cx="256" cy="256" r="240" fill="#ffffff" stroke="#000000" stroke-width="2"/>
  
  <!-- Simplified outer ring with 6 segments -->
  <g transform="translate(256,256)" stroke="#000000" stroke-width="2" fill="none">
    <!-- Top segment -->
    <path d="M 0,-200 A 200,200 0 0,1 173.2,-100 L 138.56,-80 A 160,160 0 0,0 0,-160 Z" 
          fill="#000000"/>
    
    <!-- Top-right segment -->
    <path d="M 173.2,-100 A 200,200 0 0,1 173.2,100 L 138.56,80 A 160,160 0 0,0 138.56,-80 Z" 
          fill="#ffffff"/>
    
    <!-- Bottom-right segment -->
    <path d="M 173.2,100 A 200,200 0 0,1 0,200 L 0,160 A 160,160 0 0,0 138.56,80 Z" 
          fill="#000000"/>
    
    <!-- Bottom segment -->
    <path d="M 0,200 A 200,200 0 0,1 -173.2,100 L -138.56,80 A 160,160 0 0,0 0,160 Z" 
          fill="#ffffff"/>
    
    <!-- Bottom-left segment -->
    <path d="M -173.2,100 A 200,200 0 0,1 -173.2,-100 L -138.56,-80 A 160,160 0 0,0 -138.56,80 Z" 
          fill="#000000"/>
    
    <!-- Top-left segment -->
    <path d="M -173.2,-100 A 200,200 0 0,1 0,-200 L 0,-160 A 160,160 0 0,0 -138.56,-80 Z" 
          fill="#ffffff"/>
  </g>
  
  <!-- Simplified inner TreeMap grid -->
  <g transform="translate(256,256)" stroke="#000000" stroke-width="2">
    <!-- Large left cell -->
    <rect x="-80" y="-60" width="70" height="120" rx="4" 
          fill="#ffffff"/>
    
    <!-- Top-right cell -->
    <rect x="-5" y="-60" width="85" height="55" rx="4" 
          fill="#000000"/>
    
    <!-- Bottom-right large cell -->
    <rect x="-5" y="0" width="50" height="60" rx="4" 
          fill="#ffffff"/>
    
    <!-- Bottom-right small cell -->
    <rect x="50" y="0" width="30" height="60" rx="4" 
          fill="#000000"/>
  </g>
</svg>